<?xml version="1.0" encoding="UTF-8"?>
<svg xmlns="http://www.w3.org/2000/svg" xmlns:xlink="http://www.w3.org/1999/xlink" width="200pt" height="200pt" viewBox="0 0 200 200" version="1.1">
<g id="surface111">
<path style="fill:none;stroke-width:2;stroke-linecap:butt;stroke-linejoin:miter;stroke:rgb(0%,0%,100%);stroke-opacity:1;stroke-miterlimit:10;" d="M 199 -3 L 199 199 L 1 199 L 1 1 L 195 1 L 195 195 L 5 195 L 5 5 L 191 5 L 191 191 L 9 191 L 9 9 L 187 9 L 187 187 L 13 187 L 13 13 L 183 13 L 183 183 L 17 183 L 17 17 L 179 17 L 179 179 L 21 179 L 21 21 L 175 21 L 175 175 L 25 175 L 25 25 L 171 25 L 171 171 L 29 171 L 29 29 L 167 29 L 167 167 L 33 167 L 33 33 L 163 33 "/>
</g>
</svg>
